-
 
http://www.Speed. Cd       the fast  and The Hottest Private Tracker on the net 
http://www.Speed. Cd

Please Seed back to make the speed Faster!!
 ............ NFO .............
-
 
http://www.Speed. Cd[IMG]http://imgr.us/images/3elon9e8yqyxzt7zgc58.jpg[/IMG]

VAiN . P R E S E N T S . . .

The Croods 2013 CAM XViD - VAiN

iMDB........: http://www.imdb.com/title/tt0481499/
PLOT........: The world's very first prehistoric family goes on a road trip 
to an uncharted and fantastical world. 


T E C H N i C A L . i N F O . . .      

General
Complete name                            : ...The Croods 2013 CAM XViD - VAiNThe Croods 2013 CAM XViD - VAiN.avi
Format                                   : AVI
Format/Info                              : Audio Video Interleave
File size                                : 1.38 GiB
Duration                                 : 1h 29mn
Overall bit rate                         : 2 213 Kbps
Writing application                      : VirtualDubMod 1.5.10.2 (build 2540/release)
Writing library                          : VirtualDubMod build 2540/release

Video
ID                                       : 0
Format                                   : MPEG-4 Visual
Format profile                           : Advanced Simple@L5
Format settings, BVOP                    : 2
Format settings, QPel                    : No
Format settings, GMC                     : No warppoints
Format settings, Matrix                  : Default (H.263)
Muxing mode                              : Packed bitstream
Codec ID                                 : XVID
Codec ID/Hint                            : XviD
Duration                                 : 1h 29mn
Bit rate                                 : 2 075 Kbps
Width                                    : 720 pixels
Height                                   : 256 pixels
Display aspect ratio                     : 2.118
Original display aspect ratio            : 2.813
Frame rate                               : 25.000 fps
Color space                              : YUV
Chroma subsampling                       : 4:2:0
Bit depth                                : 8 bits
Scan type                                : Progressive
Compression mode                         : Lossy
Bits/(Pixel*Frame)                       : 0.450
Stream size                              : 1.30 GiB (94%)
Writing library                          : XviD 1.2.1 (UTC 2008-12-04)

Audio
ID                                       : 1
Format                                   : MPEG Audio
Format version                           : Version 1
Format profile                           : Layer 3
Codec ID                                 : 55
Codec ID/Hint                            : MP3
Duration                                 : 1h 29mn
Bit rate mode                            : Constant
Bit rate                                 : 128 Kbps
Channel(s)                               : 2 channels
Sampling rate                            : 44.1 KHz
Compression mode                         : Lossy
Stream size                              : 81.9 MiB (6%)
Alignment                                : Split accross interleaves
Interleave, duration                     : 40 ms (1.00 video frame)
Interleave, preload duration             : 500 ms
Writing library                          : LAME3.98





E N C O D E R S . N O T E S . . .       

SOURCE......: 
V - The.Croods.2013.CAM.XviD.HUN-BEOWULF
A - The.Croods.2013.CAM.XviD-26k
(many thanks :) )

SAMPLE......: Yes
ADDED NOTE..: Tweaked lots of things, 
doesnt look too bad, check the sample,
Enjoy.... 


S C R E E N . S H O T S . . .

[IMG]http://imgr.us/images/uczjb1hif5mhdzfzsuv5.jpg[/IMG]

[IMG]http://imgr.us/images/o8whw36sewnqd15fbr3t.jpg[/IMG]

[IMG]http://imgr.us/images/yrs431qa1090l8pujcm7.jpg[/IMG]

[IMG]http://imgr.us/images/rch9tk0i5wudjkzwuxip.jpg [/IMG]

[IMG]http://imgr.us/images/mz54tk5ja9yyy9ciurd4.png [/IMG]

[IMG]http://imgr.us/images/48cjvxoe2wctgd413.png[/IMG]

[IMG]http://imgr.us/images/5l11lpiqruxr4y4tvf15.jpg[/IMG]